HIERARCHY
ROOT Hips
{
    OFFSET 0.000000 0.000000 0.000000
    CHANNELS 6 Xposition Yposition Zposition Zrotation Xrotation Yrotation
    JOINT Spine
    {
        OFFSET -0.000000 7.236184 0.000000
        CHANNELS 3 Zrotation Xrotation Yrotation
        JOINT Spine1
        {
            OFFSET -0.000000 20.420147 0.000000
            CHANNELS 3 Zrotation Xrotation Yrotation
            JOINT Neck
            {
                OFFSET -0.000000 20.336288 1.848754
                CHANNELS 3 Zrotation Xrotation Yrotation
                JOINT Head
                {
                    OFFSET -0.000000 12.354461 -1.764923
                    CHANNELS 3 Zrotation Xrotation Yrotation
                    End Site
                    {
                        OFFSET -0.000000 22.061537 0.000000
                    }
                }
            }
            JOINT LeftShoulder
            {
                OFFSET 3.573296 18.396038 -0.314103
                CHANNELS 3 Zrotation Xrotation Yrotation
                JOINT LeftArm
                {
                    OFFSET 10.880760 0.000000 0.000000
                    CHANNELS 3 Zrotation Xrotation Yrotation
                    JOINT LeftForeArm
                    {
                        OFFSET 27.185530 0.000000 0.000000
                        CHANNELS 3 Zrotation Xrotation Yrotation
                        JOINT LeftHand
                        {
                            OFFSET 27.825975 0.000000 0.000000
                            CHANNELS 3 Zrotation Xrotation Yrotation
                            End Site
                            {
                                OFFSET 13.236923 0.000000 0.000000
                            }
                        }
                    }
                }
            }
            JOINT RightShoulder
            {
                OFFSET -3.474926 18.396038 -0.314103
                CHANNELS 3 Zrotation Xrotation Yrotation
                JOINT RightArm
                {
                    OFFSET -10.880760 0.000000 0.000000
                    CHANNELS 3 Zrotation Xrotation Yrotation
                    JOINT RightForeArm
                    {
                        OFFSET -27.185530 0.000000 0.000000
                        CHANNELS 3 Zrotation Xrotation Yrotation
                        JOINT RightHand
                        {
                            OFFSET -27.825975 0.000000 0.000000
                            CHANNELS 3 Zrotation Xrotation Yrotation
                            End Site
                            {
                                OFFSET -13.236923 0.000000 0.000000
                            }
                        }
                    }
                }
            }
        }
    }
    JOINT LeftUpLeg
    {
        OFFSET 8.824615 0.000000 0.000000
        CHANNELS 3 Zrotation Xrotation Yrotation
        JOINT LeftLeg
        {
            OFFSET -0.000000 -35.111282 0.000000
            CHANNELS 3 Zrotation Xrotation Yrotation
            JOINT LeftFoot
            {
                OFFSET -0.000000 -42.324711 0.000000
                CHANNELS 3 Zrotation Xrotation Yrotation
                JOINT LeftToeBase
                {
                    OFFSET -0.000000 -5.735999 13.236923
                    CHANNELS 3 Zrotation Xrotation Yrotation
                    End Site
                    {
                        OFFSET -0.000000 0.000000 3.529846
                    }
                }
            }
        }
    }
    JOINT RightUpLeg
    {
        OFFSET -8.824615 0.000000 0.000000
        CHANNELS 3 Zrotation Xrotation Yrotation
        JOINT RightLeg
        {
            OFFSET -0.000000 -35.111282 0.000000
            CHANNELS 3 Zrotation Xrotation Yrotation
            JOINT RightFoot
            {
                OFFSET -0.000000 -42.324711 0.000000
                CHANNELS 3 Zrotation Xrotation Yrotation
                JOINT RightToeBase
                {
                    OFFSET -0.000000 -5.735999 13.236923
                    CHANNELS 3 Zrotation Xrotation Yrotation
                    End Site
                    {
                        OFFSET -0.000000 0.000000 3.529846
                    }
                }
            }
        }
    }
}
MOTION
Frames:    4
Frame Time:    0.008333
-25.757116    85.185699    90.201340    -1.859145    -6.148877    166.163361    -0.874617    -18.225023    0.589202    1.260757    13.070043    0.585048    2.888897    5.752805    -1.846564    7.938313    -9.891362    -0.400692    -2.830468    18.683626    -3.305442    -35.859715    47.394886    -45.058445    -0.085344    -2.822503    -16.595554    20.210644    -2.587003    1.392587    13.214004    20.576769    -6.761917    36.746223    40.471893    37.946522    -1.842566    -9.979172    15.555749    -18.275639    -8.904765    -5.202807    0.093879    -7.114355    -7.048533    -2.038826    9.179547    -2.638181    1.532460    -7.466193    -6.911098    0.097580    -0.365658    -0.108236    -8.254826    -6.988858    6.812540    1.132859    5.529152    1.607119    2.760203    -3.312688    -7.846617    -2.080425    -0.763511    2.252472    
-25.868093    85.189514    90.189346    -1.867800    -6.185238    166.162338    -0.914500    -18.207348    0.601095    1.272733    13.044910    0.602194    2.838022    5.751304    -1.906035    7.959331    -9.920199    -0.450990    -2.840769    18.675283    -3.357517    -35.765404    47.385918    -45.087399    -0.120413    -2.746496    -16.511370    20.249939    -2.513390    1.404556    13.171339    20.581793    -6.767486    36.665710    40.598610    37.975502    -1.857754    -10.124310    15.619057    -18.255516    -9.043402    -5.233097    0.065538    -7.073998    -7.049700    -2.100947    9.009665    -2.591316    1.546871    -7.383277    -6.957664    0.115147    -0.321879    -0.127711    -8.311368    -7.110919    6.770278    1.130516    5.664384    1.607908    2.773628    -3.275232    -7.875452    -2.064080    -0.833941    2.234996    
-25.978374    85.193375    90.177719    -1.875797    -6.221622    166.161514    -0.953829    -18.189198    0.613182    1.285341    13.019833    0.619188    2.787266    5.749288    -1.965321    7.980138    -9.949128    -0.501145    -2.851077    18.666882    -3.408882    -35.673622    47.375618    -45.114971    -0.155077    -2.670891    -16.429022    20.291512    -2.439716    1.418181    13.128977    20.586466    -6.772866    36.586113    40.723385    38.004818    -1.872387    -10.267414    15.679637    -18.237385    -9.180140    -5.262682    0.038212    -7.034345    -7.049993    -2.162901    8.840933    -2.544907    1.560977    -7.300083    -7.003801    0.133080    -0.278478    -0.147589    -8.366568    -7.233705    6.726760    1.128418    5.801255    1.608962    2.785792    -3.237942    -7.905665    -2.047311    -0.905572    2.217058    
-26.086765    85.197304    90.166924    -1.882448    -6.258041    166.161011    -0.991796    -18.170530    0.625388    1.298997    12.995057    0.636057    2.737252    5.746452    -2.023883    8.000057    -9.978214    -0.550836    -2.861480    18.657913    -3.459358    -35.588146    47.362946    -45.138214    -0.188080    -2.596718    -16.350592    20.336477    -2.366629    1.434699    13.087649    20.590248    -6.777464    36.509319    40.843620    38.033630    -1.886081    -10.406023    15.734600    -18.222385    -9.312654    -5.290866    0.012699    -6.996484    -7.047756    -2.223458    8.675509    -2.500028    1.574071    -7.216900    -7.049121    0.151919    -0.236613    -0.168469    -8.418824    -7.357553    6.681159    1.127091    5.940732    1.610132    2.795412    -3.201356    -7.938456    -2.029988    -0.979223    2.198526    
